<svg width="36" height="32" viewBox="0 0 36 32" fill="none" xmlns="http://www.w3.org/2000/svg">
<path d="M0.419739 0.808655H36V3.17238H0.419739V0.808655Z" fill="white"/>
<path d="M6.34978 3.17238V22.0822H30.0699V3.17238H6.34978ZM3.97776 0.808655H32.442V23.264C32.442 23.5775 32.317 23.8781 32.0946 24.0997C31.8722 24.3214 31.5705 24.4459 31.256 24.4459H5.16377C4.84922 24.4459 4.54756 24.3214 4.32514 24.0997C4.10272 23.8781 3.97776 23.5775 3.97776 23.264V0.808655Z" fill="white"/>
<path d="M11.1745 31.5371H8.43715L13.7979 22.2831L15.8521 23.4649L11.1745 31.5371ZM27.9968 31.5371H25.2595L20.5819 23.4649L22.636 22.2831L27.9968 31.5371Z" fill="white"/>
</svg>
