<svg width="32" height="32" viewBox="0 0 32 32" fill="none" xmlns="http://www.w3.org/2000/svg">
<path d="M1.57685 31.537V30.6303C1.57685 29.9996 1.74768 29.4214 2.08933 28.8958C2.43098 28.3702 2.90404 27.976 3.5085 27.7132C4.1918 27.4241 4.89507 27.2007 5.61832 27.043C6.34157 26.8853 7.09688 26.8065 7.88426 26.8065C8.67269 26.8065 9.42852 26.8853 10.1518 27.043C10.875 27.2007 11.5778 27.4241 12.26 27.7132C12.8645 27.976 13.3375 28.3702 13.6792 28.8958C14.0208 29.4214 14.1917 29.9996 14.1917 30.6303V31.537H1.57685ZM17.3454 31.537V30.6303C17.3454 29.9996 17.5162 29.4214 17.8578 28.8958C18.1995 28.3702 18.6726 27.976 19.277 27.7132C19.9603 27.4241 20.6636 27.2007 21.3868 27.043C22.1101 26.8853 22.8654 26.8065 23.6528 26.8065C24.4412 26.8065 25.197 26.8853 25.9203 27.043C26.6435 27.2007 27.3463 27.4241 28.0285 27.7132C28.633 27.976 29.1061 28.3702 29.4477 28.8958C29.7894 29.4214 29.9602 29.9996 29.9602 30.6303V31.537H17.3454ZM7.88426 25.2296C7.01699 25.2296 6.27482 24.9211 5.65774 24.304C5.04067 23.6869 4.73161 22.9442 4.73056 22.0759C4.73056 21.2087 5.03962 20.4665 5.65774 19.8494C6.27587 19.2323 7.01804 18.9233 7.88426 18.9222C8.75153 18.9222 9.49423 19.2313 10.1124 19.8494C10.7305 20.4675 11.039 21.2097 11.038 22.0759C11.038 22.9432 10.7294 23.6859 10.1124 24.304C9.49528 24.9221 8.75258 25.2307 7.88426 25.2296ZM23.6528 25.2296C22.7855 25.2296 22.0433 24.9211 21.4263 24.304C20.8092 23.6869 20.5001 22.9442 20.4991 22.0759C20.4991 21.2087 20.8081 20.4665 21.4263 19.8494C22.0444 19.2323 22.7866 18.9233 23.6528 18.9222C24.52 18.9222 25.2627 19.2313 25.8809 19.8494C26.499 20.4675 26.8075 21.2097 26.8065 22.0759C26.8065 22.9432 26.4979 23.6859 25.8809 24.304C25.2638 24.9221 24.5211 25.2307 23.6528 25.2296ZM15.7685 22.0759L11.038 17.3454L12.6937 15.6897L14.5859 17.5425V14.1917H16.9512V17.5425L18.8434 15.6897L20.4991 17.3454L15.7685 22.0759ZM0 12.6148V11.7081C0 11.0774 0.170826 10.4992 0.512477 9.97359C0.854128 9.44797 1.32718 9.05376 1.93164 8.79095C2.61495 8.50186 3.31822 8.27847 4.04147 8.12079C4.76472 7.9631 5.52003 7.88426 6.30741 7.88426C6.83302 7.88426 7.35233 7.92368 7.86534 8.00252C8.37834 8.08137 8.87084 8.18649 9.34285 8.31789C8.89607 8.76467 8.54128 9.27715 8.27847 9.85532C8.01566 10.4335 7.88426 11.0511 7.88426 11.7081V12.6148H0ZM9.46111 12.6148V11.7081C9.46111 11.0774 9.63194 10.4992 9.97359 9.97359C10.3152 9.44797 10.7883 9.05376 11.3928 8.79095C12.0761 8.50186 12.7793 8.27847 13.5026 8.12079C14.2258 7.9631 14.9811 7.88426 15.7685 7.88426C16.5569 7.88426 17.3128 7.9631 18.036 8.12079C18.7593 8.27847 19.462 8.50186 20.1443 8.79095C20.7487 9.05376 21.2218 9.44797 21.5634 9.97359C21.9051 10.4992 22.0759 11.0774 22.0759 11.7081V12.6148H9.46111ZM23.6528 12.6148V11.7081C23.6528 11.0511 23.5214 10.4335 23.2586 9.85532C22.9958 9.27715 22.641 8.76467 22.1942 8.31789C22.6672 8.18649 23.1603 8.08137 23.6733 8.00252C24.1863 7.92368 24.7051 7.88426 25.2296 7.88426C26.0181 7.88426 26.7739 7.9631 27.4971 8.12079C28.2204 8.27847 28.9231 8.50186 29.6054 8.79095C30.2099 9.05376 30.6829 9.44797 31.0246 9.97359C31.3662 10.4992 31.537 11.0774 31.537 11.7081V12.6148H23.6528ZM6.30741 6.30741C5.44014 6.30741 4.69797 5.99887 4.08089 5.3818C3.46382 4.76472 3.15475 4.02202 3.1537 3.1537C3.1537 2.28644 3.46277 1.54426 4.08089 0.927189C4.69902 0.310114 5.44119 0.00105123 6.30741 0C7.17468 0 7.91737 0.309063 8.5355 0.927189C9.15363 1.54531 9.46216 2.28749 9.46111 3.1537C9.46111 4.02097 9.15257 4.76367 8.5355 5.3818C7.91842 5.99992 7.17573 6.30846 6.30741 6.30741ZM15.7685 6.30741C14.9012 6.30741 14.1591 5.99887 13.542 5.3818C12.9249 4.76472 12.6159 4.02202 12.6148 3.1537C12.6148 2.28644 12.9239 1.54426 13.542 0.927189C14.1601 0.310114 14.9023 0.00105123 15.7685 0C16.6358 0 17.3785 0.309063 17.9966 0.927189C18.6147 1.54531 18.9233 2.28749 18.9222 3.1537C18.9222 4.02097 18.6137 4.76367 17.9966 5.3818C17.3795 5.99992 16.6368 6.30846 15.7685 6.30741ZM25.2296 6.30741C24.3624 6.30741 23.6202 5.99887 23.0031 5.3818C22.386 4.76472 22.077 4.02202 22.0759 3.1537C22.0759 2.28644 22.385 1.54426 23.0031 0.927189C23.6212 0.310114 24.3634 0.00105123 25.2296 0C26.0969 0 26.8396 0.309063 27.4577 0.927189C28.0758 1.54531 28.3844 2.28749 28.3833 3.1537C28.3833 4.02097 28.0748 4.76367 27.4577 5.3818C26.8406 5.99992 26.0979 6.30846 25.2296 6.30741Z" fill="white"/>
</svg>
