<svg width="34" height="32" viewBox="0 0 34 32" fill="none" xmlns="http://www.w3.org/2000/svg">
<path d="M31.1874 0.808655H2.76941C2.14133 0.808655 1.53898 1.05769 1.09486 1.50097C0.650747 1.94426 0.401245 2.54548 0.401245 3.17238V22.0822C0.401245 22.7091 0.650747 23.3103 1.09486 23.7536C1.53898 24.1968 2.14133 24.4459 2.76941 24.4459H12.2421V29.1733H7.50574V31.537H26.4511V29.1733H21.7147V24.4459H31.1874C31.8155 24.4459 32.4178 24.1968 32.8619 23.7536C33.3061 23.3103 33.5556 22.7091 33.5556 22.0822V3.17238C33.5556 2.54548 33.3061 1.94426 32.8619 1.50097C32.4178 1.05769 31.8155 0.808655 31.1874 0.808655ZM19.3466 29.1733H14.6102V24.4459H19.3466V29.1733ZM31.1874 22.0822H2.76941V3.17238H31.1874V22.0822Z" fill="white"/>
</svg>
